<svg id="Capa_1" enable-background="new 0 0 513 513" height="512" viewBox="0 0 513 513" width="512" xmlns="http://www.w3.org/2000/svg"><g><g><path d="m142.25 15.5v482c0 8.284 6.716 15 15 15h240l115-115v-382c0-8.284-6.716-15-15-15h-340c-8.284 0-15 6.716-15 15z" fill="#f9f9f9" stroke="#f9f9f9" stroke-miterlimit="10"/><path d="m327.25.5v512h70l115-115v-382c0-8.284-6.716-15-15-15z" fill="#d8f1fb"/><path d="m407.856 508.106 100-100c2.813-2.812 4.394-6.628 4.394-10.606h-100c-8.284 0-15 6.716-15 15v100c3.978 0 7.793-1.58 10.606-4.394z" fill="#b1d5f1"/></g><g><path d="m265.25 512.5h-95l-15-20-15 20h-95c-24.813 0-45-20.187-45-45v-220c0-24.813 20.187-45 45-45h35l75 10 75-10h35c24.813 0 45 20.187 45 45v220c0 24.813-20.187 45-45 45z" fill="#fff17d"/><g><path d="m265.25 202.5h-35l-75 10v280l15 20h95c24.813 0 45-20.187 45-45v-220c0-24.813-20.187-45-45-45z" fill="#ffc178"/></g><path d="m155.25 307.5c-33.137 0-60-26.863-60-60v-30h120v30c0 33.137-26.863 60-60 60z" fill="#f9f9f9" stroke="#f9f9f9" stroke-miterlimit="10"/><g><path d="m155.25 217.5v90c33.137 0 60-26.863 60-60v-30z" fill="#d8f1fb"/></g><path d="m140.25 217.5v30c0 8.284 6.716 15 15 15s15-6.716 15-15v-30z" fill="#524798"/><g><g><path d="m155.25 217.5v45c8.284 0 15-6.716 15-15v-30z" fill="#38336b"/></g></g><path d="m154.51 322.496c-41.289-.401-74.26-34.662-74.26-75.953v-44.043h150v45c0 41.602-34.047 75.401-75.74 74.996zm-44.26-89.996v15c0 24.813 20.187 45 45 45s45-20.187 45-45v-15z" fill="#ffc178"/><path d="m155.25 202.5v30h45v15c0 24.813-20.187 45-45 45v29.985c41.353-.002 75-33.63 75-74.985v-45z" fill="#ff8e00"/></g><path d="m437.25 97.5h-130c-8.284 0-15-6.716-15-15s6.716-15 15-15h130c8.284 0 15 6.716 15 15s-6.716 15-15 15z" fill="#524798"/><g><path d="m170.25 512.5h-30v-145c0-8.284 6.716-15 15-15 8.284 0 15 6.716 15 15z" fill="#524798"/></g><path d="m247.25 97.5h-30c-8.284 0-15-6.716-15-15s6.716-15 15-15h30c8.284 0 15 6.716 15 15s-6.716 15-15 15z" fill="#524798"/><path d="m437.25 157.5h-130c-8.284 0-15-6.716-15-15s6.716-15 15-15h130c8.284 0 15 6.716 15 15s-6.716 15-15 15z" fill="#524798"/><g fill="#38336b"><path d="m437.25 217.5h-90c-8.284 0-15-6.716-15-15s6.716-15 15-15h90c8.284 0 15 6.716 15 15s-6.716 15-15 15z"/><path d="m437.25 277.5h-90c-8.284 0-15-6.716-15-15s6.716-15 15-15h90c8.284 0 15 6.716 15 15s-6.716 15-15 15z"/><path d="m437.25 337.5h-90c-8.284 0-15-6.716-15-15s6.716-15 15-15h90c8.284 0 15 6.716 15 15s-6.716 15-15 15z"/></g><path d="m247.25 157.5h-30c-8.284 0-15-6.716-15-15s6.716-15 15-15h30c8.284 0 15 6.716 15 15s-6.716 15-15 15z" fill="#524798"/><g><g><path d="m170.25 512.5v-145c0-8.284-6.716-15-15-15v160z" fill="#38336b"/></g></g><g><g fill="#38336b"><path d="m452.25 82.5c0-8.284-6.716-15-15-15h-110v30h110c8.284 0 15-6.716 15-15z"/><path d="m437.25 127.5h-110v30h110c8.284 0 15-6.716 15-15s-6.716-15-15-15z"/></g></g></g></svg>