<svg id="Capa_1" enable-background="new 0 0 512 512" viewBox="0 0 512 512" xmlns="http://www.w3.org/2000/svg"><g><path d="m256 37.66c11.199 50.678 22.397 101.357 33.596 152.035-11.199 53.492-22.397 106.983-33.596 160.475h-237.34v-312.51z" fill="#edf4f5"/><path d="m493.34 37.66v312.51h-237.34v-13.17l-40.384-117.35 40.384-124.65v-57.34z" fill="#d5e9eb"/><g><path d="m313.84 291.711h122.15c8.284 0 15-6.716 15-15s-6.716-15-15-15h-122.15c-8.284 0-15 6.716-15 15s6.716 15 15 15z" fill="#80a9ff"/></g><path d="m326.03 206.575c13.4 12.44 31.31 20.04 50.97 20.04 41.35 0 75-33.65 75-75s-33.65-75-75-75c-16.99 43.32-33.98 86.64-50.97 129.96z" fill="#00c56b"/><path d="m302 151.615c0 21.69 9.26 41.26 24.03 54.96l50.97-54.96v-75c-41.35 0-75 33.65-75 75z" fill="#f37"/><g><path d="m80.7 101.28h154.6v47.44h-154.6z" fill="#80a9ff"/><path d="m60 95v242l15 13h166l15-13v-242c0-8.28-6.72-15-15-15h-166c-8.28 0-15 6.72-15 15zm30 15h136v30h-136z" fill="#404080"/><g fill="#ffe566"><g><circle cx="188" cy="215" r="15"/><circle cx="188" cy="275" r="15"/></g><g><circle cx="128" cy="215" r="15"/><circle cx="128" cy="275" r="15"/></g></g></g><path d="m256 412c4.05 8.667 8.099 17.333 12.149 26-4.05 8.667-8.099 17.333-12.149 26-6.36 4.975-12.721 9.951-19.081 14.926-8.64-4.975-17.279-9.951-25.919-14.926v-52c7.5-6.567 15-13.135 22.5-19.702 7.5 6.567 15 13.135 22.5 19.702z" fill="#404080"/><path d="m301 412v52c-7.59 5.773-15.18 11.546-22.771 17.319-7.409-5.773-14.819-11.546-22.229-17.319 0-17.333 0-34.667 0-52 7.794-7.248 15.589-14.496 23.383-21.745 7.206 7.249 14.411 14.497 21.617 21.745z" fill="#2e2654"/><path d="m256 464c6.262 3.844 12.525 7.688 18.787 11.532-6.262 6.156-12.525 12.312-18.787 18.468-41.667 0-83.333 0-125 0-8.28 0-15-6.72-15-15s6.72-15 15-15z" fill="#6b6ba6"/><path d="m396 479c0 8.229-6.771 15-15 15h-125v-30h125c8.229 0 15 6.771 15 15z" fill="#404080"/><path d="m256 48c5.922-5.404 11.844-10.809 17.766-16.213-5.922-4.596-11.844-9.191-17.766-13.787-80.333 0-160.667 0-241 0-8.28 0-15 6.72-15 15v364c0 8.28 6.72 15 15 15h241c12.73-12.014 25.461-24.028 38.191-36.043-12.73-12.985-25.461-25.971-38.191-38.957-75.333 0-150.667 0-226 0v-289z" fill="#6b6ba6"/><path d="m512 33v364c0 8.28-6.72 15-15 15h-241v-75h226v-289h-226v-30h241c8.28 0 15 6.72 15 15z" fill="#404080"/></g><g/><g/><g/><g/><g/><g/><g/><g/><g/><g/><g/><g/><g/><g/><g/></svg>