<svg id="Layer_1" enable-background="new 0 0 512.002 512.002" height="512" viewBox="0 0 512.002 512.002" width="512" xmlns="http://www.w3.org/2000/svg"><g><path d="m141.677 200.913-139.885 259.842c-3.892 7.235-1.239 16.255 5.949 20.231l52.678 29.138c2.243 1.241 4.744 1.874 7.262 1.874 1.419 0 2.845-.202 4.231-.609 3.846-1.131 7.079-3.755 8.978-7.285l139.405-259.182-31.769-33.381z" fill="#ffd845"/><path d="m426.898 362.498h-123.346c-30.373 0-55.083 24.699-55.083 55.057v19.339c0 8.284 6.716 15 15 15h203.513c8.284 0 15-6.716 15-15v-19.339c0-30.358-24.711-55.057-55.084-55.057z" fill="#bc8173"/><path d="m426.898 362.498h-61.672v89.396h101.756c8.284 0 15-6.716 15-15v-19.339c0-30.358-24.711-55.057-55.084-55.057z" fill="#af705c"/><path d="m343.667 137.562c-1.099-3.825-3.673-7.056-7.155-8.982l-158.034-87.414c-7.249-4.008-16.371-1.386-20.383 5.858l-61.726 111.446c-1.928 3.481-2.394 7.586-1.294 11.411 1.099 3.825 3.673 7.056 7.155 8.982l158.034 87.414c2.302 1.273 4.791 1.877 7.247 1.877 5.278 0 10.397-2.792 13.136-7.735l61.727-111.446c1.927-3.482 2.393-7.586 1.293-11.411z" fill="#ffd845"/><g><path d="m60.419 510.124c2.243 1.241 4.744 1.874 7.262 1.874 1.419 0 2.845-.202 4.231-.609 3.846-1.131 7.079-3.755 8.978-7.285l139.405-259.182-31.645-33.25-154.569 283.883z" fill="#ffb454"/><path d="m336.512 128.579-78.866-43.623-75.269 138.24 77.888 43.082c2.302 1.273 4.791 1.877 7.247 1.877 5.278 0 10.397-2.792 13.136-7.735l61.727-111.446c1.928-3.481 2.394-7.586 1.294-11.411-1.1-3.826-3.674-7.057-7.157-8.984z" fill="#ffb454"/><path d="m197.193 29.279c-1.099-3.825-3.673-7.056-7.155-8.982l-26.572-14.697c-21.631-11.965-48.97-4.105-60.946 17.517l-56.01 101.124c-5.807 10.485-7.182 22.603-3.871 34.122s10.91 21.058 21.398 26.859l26.541 14.68c2.301 1.273 4.79 1.877 7.246 1.877 5.278 0 10.397-2.792 13.136-7.735l84.939-153.354c1.928-3.481 2.393-7.586 1.294-11.411z" fill="#bc8173"/><path d="m396.009 149.25c-3.311-11.52-10.91-21.058-21.397-26.859l-26.54-14.68c-7.249-4.008-16.371-1.386-20.383 5.858l-84.939 153.353c-1.928 3.481-2.394 7.586-1.294 11.411 1.099 3.825 3.673 7.056 7.155 8.982l26.57 14.696c6.861 3.795 14.293 5.595 21.631 5.595 15.794 0 31.138-8.348 39.315-23.112l56.009-101.124c5.809-10.483 7.185-22.601 3.873-34.12z" fill="#af705c"/><path d="m302.548 87.554c-1.099-3.825-3.673-7.056-7.155-8.982l-52.678-29.138c-7.248-4.009-16.371-1.386-20.383 5.858l-80.656 145.621 78.618 44.009 80.959-145.957c1.929-3.48 2.395-7.586 1.295-11.411z" fill="#bc8173"/><path d="m220.295 244.922 80.959-145.957c1.928-3.481 2.394-7.586 1.294-11.411-1.099-3.825-3.673-7.056-7.155-8.982l-26.339-14.569-86.887 159.576z" fill="#af705c"/></g><path d="m497.002 431.895h-263.553c-8.284 0-15 6.716-15 15v49.396c0 8.284 6.716 15 15 15h263.554c8.284 0 15-6.716 15-15v-49.396c-.001-8.284-6.716-15-15.001-15z" fill="#ffd845"/><path d="m497.002 431.895h-131.776v79.396h131.777c8.284 0 15-6.716 15-15v-49.396c-.001-8.284-6.716-15-15.001-15z" fill="#ffb454"/></g></svg>